<svg fill="#000000" xmlns="http://www.w3.org/2000/svg"  viewBox="0 0 16 16" width="16px" height="16px"><path d="M 2.5 1 C 1.675781 1 1 1.675781 1 2.5 C 1 3.324219 1.675781 4 2.5 4 C 2.730469 4 2.945313 3.941406 3.140625 3.847656 L 5.417969 6.125 C 5.15625 6.519531 5 6.992188 5 7.5 C 5 7.898438 5.101563 8.273438 5.273438 8.609375 L 3.277344 10.222656 C 3.050781 10.085938 2.785156 10 2.5 10 C 1.675781 10 1 10.675781 1 11.5 C 1 12.324219 1.675781 13 2.5 13 C 3.324219 13 4 12.324219 4 11.5 C 4 11.324219 3.964844 11.160156 3.90625 11.003906 L 5.890625 9.394531 C 6.328125 9.765625 6.886719 10 7.5 10 C 7.769531 10 8.023438 9.945313 8.265625 9.867188 L 9.332031 11.574219 C 9.128906 11.832031 9 12.148438 9 12.5 C 9 13.324219 9.675781 14 10.5 14 C 11.324219 14 12 13.324219 12 12.5 C 12 11.675781 11.324219 11 10.5 11 C 10.390625 11 10.28125 11.015625 10.175781 11.035156 L 9.140625 9.371094 C 9.472656 9.078125 9.726563 8.699219 9.867188 8.265625 L 12.019531 8.707031 C 12.125 9.433594 12.75 10 13.5 10 C 14.324219 10 15 9.324219 15 8.5 C 15 7.675781 14.324219 7 13.5 7 C 12.960938 7 12.488281 7.296875 12.222656 7.726563 L 9.976563 7.265625 C 9.914063 6.613281 9.605469 6.035156 9.132813 5.625 L 10.171875 3.960938 C 10.277344 3.984375 10.386719 4 10.5 4 C 11.324219 4 12 3.324219 12 2.5 C 12 1.675781 11.324219 1 10.5 1 C 9.675781 1 9 1.675781 9 2.5 C 9 2.847656 9.125 3.167969 9.328125 3.421875 L 8.261719 5.132813 C 8.019531 5.054688 7.765625 5 7.5 5 C 6.992188 5 6.519531 5.15625 6.125 5.417969 L 3.847656 3.140625 C 3.941406 2.945313 4 2.730469 4 2.5 C 4 1.675781 3.324219 1 2.5 1 Z M 2.5 2 C 2.78125 2 3 2.21875 3 2.5 C 3 2.78125 2.78125 3 2.5 3 C 2.21875 3 2 2.78125 2 2.5 C 2 2.21875 2.21875 2 2.5 2 Z M 10.5 2 C 10.78125 2 11 2.21875 11 2.5 C 11 2.78125 10.78125 3 10.5 3 C 10.21875 3 10 2.78125 10 2.5 C 10 2.21875 10.21875 2 10.5 2 Z M 7.5 6 C 8.335938 6 9 6.664063 9 7.5 C 9 8.039063 8.71875 8.503906 8.296875 8.769531 C 8.246094 8.789063 8.199219 8.8125 8.15625 8.847656 C 7.957031 8.941406 7.734375 9 7.5 9 C 6.664063 9 6 8.335938 6 7.5 C 6 6.664063 6.664063 6 7.5 6 Z M 13.5 8 C 13.78125 8 14 8.21875 14 8.5 C 14 8.78125 13.78125 9 13.5 9 C 13.21875 9 13 8.78125 13 8.5 C 13 8.21875 13.21875 8 13.5 8 Z M 2.5 11 C 2.78125 11 3 11.21875 3 11.5 C 3 11.78125 2.78125 12 2.5 12 C 2.21875 12 2 11.78125 2 11.5 C 2 11.21875 2.21875 11 2.5 11 Z M 10.5 12 C 10.78125 12 11 12.21875 11 12.5 C 11 12.78125 10.78125 13 10.5 13 C 10.21875 13 10 12.78125 10 12.5 C 10 12.21875 10.21875 12 10.5 12 Z"/></svg>