<svg fill="#000000" xmlns="http://www.w3.org/2000/svg"  viewBox="0 0 16 16" width="16px" height="16px"><path d="M 5 0 L 5 1 L 4 1 L 4 2 L 5 2 L 5 3 L 6 3 L 6 2 L 7 2 L 7 1 L 6 1 L 6 0 Z M 8 1 L 8 2 C 8.117188 2 9.519531 2.003906 10.445313 2.007813 L 10.105469 2.699219 C 10.054688 2.820313 9.871094 3.226563 9.234375 3.75 C 8.5 4.359375 7.226563 5 5 5 L 5 6 C 7.421875 6 8.957031 5.277344 9.875 4.523438 C 10.367188 4.113281 10.664063 3.714844 10.847656 3.40625 C 11.929688 3.941406 12.300781 5.023438 12.066406 6.953125 L 12 7.476563 L 12.53125 7.511719 C 12.796875 7.527344 13 7.738281 13 8 C 13 8.410156 12.660156 8.980469 12.5 9 C 12.460938 9 12.3125 8.996094 12.027344 8.921875 L 11.5625 8.8125 L 11.390625 9.371094 C 10.816406 11.542969 9.171875 13 8 13 C 6.824219 13 5.183594 11.542969 4.609375 9.375 L 4.445313 8.804688 L 3.976563 8.921875 C 3.6875 8.996094 3.539063 9 3.5 9 C 3.339844 8.980469 3 8.410156 3 8 C 3 7.738281 3.203125 7.527344 3.46875 7.511719 L 3.992188 7.476563 L 3.9375 6.957031 L 3.875 6.5 C 3.875 6.5 3.484375 6.484375 2.898438 6.636719 C 2.367188 6.867188 2 7.394531 2 8 C 2 8.796875 2.597656 10 3.5 10 C 3.578125 10 3.660156 9.992188 3.742188 9.984375 C 4.476563 12.261719 6.289063 14 8 14 C 9.6875 14 11.484375 12.296875 12.253906 9.984375 C 12.339844 9.992188 12.421875 10 12.5 10 C 13.402344 10 14 8.796875 14 8 C 14 7.398438 13.632813 6.871094 13.105469 6.640625 C 13.207031 5.527344 13.191406 3.457031 11.3125 2.515625 L 12.050781 1.015625 L 11.25 1.011719 C 11.253906 1.011719 8.175781 1 8 1 Z M 14 2 L 14 3 L 13 3 L 13 4 L 14 4 L 14 5 L 15 5 L 15 4 L 16 4 L 16 3 L 15 3 L 15 2 Z M 2 3 L 2 4 L 1 4 L 1 5 L 2 5 L 2 6 L 3 6 L 3 5 L 4 5 L 4 4 L 3 4 L 3 3 Z M 6.5 7 C 6.222656 7 6 7.222656 6 7.5 C 6 7.777344 6.222656 8 6.5 8 C 6.777344 8 7 7.777344 7 7.5 C 7 7.222656 6.777344 7 6.5 7 Z M 9.5 7 C 9.222656 7 9 7.222656 9 7.5 C 9 7.777344 9.222656 8 9.5 8 C 9.777344 8 10 7.777344 10 7.5 C 10 7.222656 9.777344 7 9.5 7 Z"/></svg>