<svg fill="#000000" xmlns="http://www.w3.org/2000/svg"  viewBox="0 0 16 16" width="16px" height="16px"><path d="M 4.5 1 C 3.675781 1 3 1.675781 3 2.5 C 3 3.148438 3.421875 3.699219 4 3.90625 L 4 11.09375 C 3.421875 11.300781 3 11.851563 3 12.5 C 3 13.324219 3.675781 14 4.5 14 C 5.324219 14 6 13.324219 6 12.5 C 6 11.851563 5.578125 11.300781 5 11.09375 L 5 10 C 5 8.863281 5.359375 8.507813 5.984375 8.257813 C 6.605469 8.007813 7.558594 8 8.5 8 C 9.390625 8 10.257813 7.859375 10.9375 7.320313 C 11.613281 6.785156 12 5.878906 12 4.625 L 12 3.90625 C 12.578125 3.699219 13 3.148438 13 2.5 C 13 1.675781 12.324219 1 11.5 1 C 10.675781 1 10 1.675781 10 2.5 C 10 3.148438 10.421875 3.699219 11 3.90625 L 11 4.625 C 11 5.6875 10.722656 6.214844 10.3125 6.539063 C 9.90625 6.863281 9.277344 7 8.5 7 C 7.566406 7 6.519531 6.964844 5.609375 7.328125 C 5.394531 7.417969 5.1875 7.535156 5 7.6875 L 5 3.90625 C 5.578125 3.699219 6 3.148438 6 2.5 C 6 1.675781 5.324219 1 4.5 1 Z M 4.5 2 C 4.78125 2 5 2.21875 5 2.5 C 5 2.78125 4.78125 3 4.5 3 C 4.21875 3 4 2.78125 4 2.5 C 4 2.21875 4.21875 2 4.5 2 Z M 11.5 2 C 11.78125 2 12 2.21875 12 2.5 C 12 2.78125 11.78125 3 11.5 3 C 11.21875 3 11 2.78125 11 2.5 C 11 2.21875 11.21875 2 11.5 2 Z M 4.5 12 C 4.78125 12 5 12.21875 5 12.5 C 5 12.78125 4.78125 13 4.5 13 C 4.21875 13 4 12.78125 4 12.5 C 4 12.21875 4.21875 12 4.5 12 Z"/></svg>