<svg fill="#000000" xmlns="http://www.w3.org/2000/svg"  viewBox="0 0 16 16" width="16px" height="16px"><path d="M 7 1 L 7 3 L 8 3 L 8 1 Z M 3.257813 2.550781 L 2.550781 3.257813 L 3.5625 4.273438 L 4.273438 3.5625 Z M 11.742188 2.550781 L 9.976563 4.3125 L 10.6875 5.023438 L 12.449219 3.257813 Z M 1 7 L 1 8 L 2 8 L 2 7 Z M 11 7 L 11 8 L 14 8 L 14 7 Z M 10.3125 9.601563 L 9.601563 10.3125 L 11.742188 12.449219 L 12.449219 11.742188 Z M 7 11 L 7 14 L 8 14 L 8 11 Z M 3.257813 11.035156 L 2.550781 11.742188 L 3.257813 12.449219 L 3.964844 11.742188 Z"/></svg>