<svg fill="#000000" xmlns="http://www.w3.org/2000/svg"  viewBox="0 0 16 16" width="16px" height="16px"><path d="M 7.5 1 C 5.371094 1 3.847656 1.863281 2.953125 3.0625 C 2.132813 4.160156 1.875 5.496094 1.960938 6.722656 C 1.429688 6.953125 1 7.386719 1 8 C 1 8.410156 1.136719 8.828125 1.363281 9.210938 C 1.589844 9.59375 1.9375 10 2.5 10 C 2.589844 10 2.695313 9.96875 2.789063 9.953125 C 3.171875 11.085938 3.851563 12.0625 4.667969 12.753906 C 5.570313 13.523438 6.574219 14 7.5 14 C 8.425781 14 9.429688 13.523438 10.332031 12.753906 C 11.148438 12.0625 11.828125 11.085938 12.207031 9.953125 C 12.304688 9.96875 12.410156 10 12.5 10 C 13.0625 10 13.410156 9.59375 13.636719 9.210938 C 13.863281 8.828125 14 8.410156 14 8 C 14 7.386719 13.570313 6.953125 13.042969 6.722656 C 13.125 5.496094 12.867188 4.160156 12.046875 3.0625 C 11.152344 1.863281 9.628906 1 7.5 1 Z M 7.5 2 C 9.371094 2 10.535156 2.703125 11.25 3.660156 C 11.960938 4.617188 12.207031 5.875 12.066406 6.945313 L 11.996094 7.476563 L 12.53125 7.511719 C 12.800781 7.53125 13 7.730469 13 8 C 13 8.140625 12.914063 8.472656 12.777344 8.703125 C 12.640625 8.933594 12.488281 9 12.5 9 C 12.429688 9 12.230469 8.972656 12.027344 8.921875 L 11.5625 8.804688 L 11.425781 9.265625 C 11.425781 9.261719 11.414063 9.296875 11.390625 9.371094 L 11.390625 9.375 C 11.113281 10.421875 10.449219 11.34375 9.683594 11.996094 C 8.917969 12.644531 8.046875 13 7.5 13 C 6.953125 13 6.082031 12.644531 5.316406 11.996094 C 4.550781 11.34375 3.886719 10.421875 3.609375 9.375 L 3.609375 9.371094 C 3.585938 9.296875 3.574219 9.261719 3.574219 9.265625 L 3.4375 8.804688 L 2.972656 8.921875 C 2.769531 8.972656 2.570313 9 2.5 9 C 2.511719 9 2.359375 8.933594 2.222656 8.703125 C 2.085938 8.472656 2 8.140625 2 8 C 2 7.730469 2.199219 7.53125 2.46875 7.511719 L 3.003906 7.476563 L 2.933594 6.945313 C 2.792969 5.875 3.039063 4.617188 3.75 3.660156 C 4.464844 2.703125 5.628906 2 7.5 2 Z M 7.570313 4.003906 C 6.359375 4.070313 5.375 5.085938 5.375 6.320313 L 6.375 6.320313 C 6.375 5.507813 7.078125 4.875 7.933594 5.023438 C 8.550781 5.128906 9.03125 5.730469 9.015625 6.359375 C 8.996094 6.917969 8.675781 7.269531 8.195313 7.476563 C 7.902344 7.609375 7.621094 7.734375 7.382813 7.984375 C 7.144531 8.234375 7.015625 8.605469 7.015625 9 L 8.015625 9 C 8.015625 8.777344 8.042969 8.742188 8.105469 8.675781 C 8.167969 8.609375 8.328125 8.515625 8.601563 8.394531 C 9.347656 8.066406 9.984375 7.355469 10.015625 6.390625 C 10.046875 5.253906 9.234375 4.230469 8.101563 4.035156 C 7.921875 4.003906 7.746094 3.996094 7.570313 4.003906 Z M 7.015625 10 L 7.015625 11 L 8.015625 11 L 8.015625 10 Z"/></svg>