<svg fill="#000000" xmlns="http://www.w3.org/2000/svg"  viewBox="0 0 16 16" width="16px" height="16px"><path d="M 1.5 3 A 0.50005 0.50005 0 0 0 1 3.5 L 1 5.5 A 0.50005 0.50005 0 0 0 1.5 6 L 3.5 6 A 0.50005 0.50005 0 0 0 4 5.5 L 4 3.5 A 0.50005 0.50005 0 0 0 3.5 3 L 1.5 3 z M 5 3 L 5 4 L 15 4 L 15 3 L 5 3 z M 2 4 L 3 4 L 3 5 L 2 5 L 2 4 z M 5 5 L 5 6 L 12 6 L 12 5 L 5 5 z M 1.5 9 A 0.50005 0.50005 0 0 0 1 9.5 L 1 11.5 A 0.50005 0.50005 0 0 0 1.5 12 L 3.5 12 A 0.50005 0.50005 0 0 0 4 11.5 L 4 9.5 A 0.50005 0.50005 0 0 0 3.5 9 L 1.5 9 z M 5 9 L 5 10 L 15 10 L 15 9 L 5 9 z M 2 10 L 3 10 L 3 11 L 2 11 L 2 10 z M 5 11 L 5 12 L 12 12 L 12 11 L 5 11 z"/></svg>