<svg fill="#000000" xmlns="http://www.w3.org/2000/svg"  viewBox="0 0 16 16" width="16px" height="16px"><path d="M 8 2 C 6.167969 2 4.574219 3.273438 4.132813 5.023438 C 3.054688 5.183594 2.199219 6.042969 2.03125 7.160156 C 0.835938 7.566406 0 8.707031 0 10 C 0 11.652344 1.347656 13 3 13 L 6 13 L 6 12 L 3 12 C 1.898438 12 1 11.101563 1 10 C 1 9.050781 1.675781 8.226563 2.601563 8.039063 L 3.011719 7.921875 L 3 7.5 C 3 6.671875 3.671875 6 4.449219 5.996094 L 4.550781 6.007813 L 4.984375 6.007813 L 5.046875 5.574219 C 5.253906 4.105469 6.523438 3 8 3 C 9.207031 3 10.292969 3.71875 10.765625 4.828125 L 10.941406 5.257813 L 11.378906 5.109375 C 11.605469 5.035156 11.808594 5 12 5 C 13.101563 5 14 5.898438 14 7 C 14 7.234375 13.953125 7.472656 13.859375 7.710938 L 13.71875 8.09375 L 14.0625 8.3125 C 14.648438 8.683594 15 9.3125 15 10 C 15 11.101563 14.101563 12 13 12 L 9 12 L 9 13 L 13 13 C 14.652344 13 16 11.652344 16 10 C 16 9.101563 15.601563 8.261719 14.914063 7.695313 C 14.972656 7.464844 15 7.230469 15 7 C 15 5.179688 13.390625 3.695313 11.492188 4.046875 C 10.789063 2.792969 9.464844 2 8 2 Z M 7.5 8 L 5 11 L 7 11 L 7 15 L 8 15 L 8 11 L 10 11 Z"/></svg>