<svg fill="#000000" xmlns="http://www.w3.org/2000/svg"  viewBox="0 0 16 16" width="16px" height="16px"><path d="M 10.796875 0.976563 C 10.699219 0.980469 10.601563 0.992188 10.503906 1.015625 L 10.496094 1.015625 L 3.070313 3.171875 C 2.429688 3.351563 2 3.953125 2 4.621094 L 2 12.453125 C 2 13.289063 2.660156 14.011719 3.5 14.011719 L 12.5 14.011719 C 13.335938 14.011719 14 13.292969 14 12.453125 L 14 5.570313 C 14 4.726563 13.339844 4.007813 12.5 4.007813 L 3.78125 4.007813 L 10.746094 1.984375 L 10.75 1.984375 C 10.851563 1.957031 10.878906 1.976563 10.917969 2.011719 C 10.953125 2.046875 11 2.125 11 2.25 L 11 3 L 12 3 L 12 2.25 C 12 1.875 11.859375 1.515625 11.582031 1.269531 C 11.378906 1.085938 11.09375 0.976563 10.796875 0.976563 Z M 3.5 5.007813 L 12.5 5.007813 C 12.765625 5.007813 13 5.238281 13 5.570313 L 13 12.453125 C 13 12.78125 12.765625 13.011719 12.5 13.011719 L 3.5 13.011719 C 3.234375 13.011719 3 12.78125 3 12.453125 L 3 5.570313 C 3 5.238281 3.234375 5.007813 3.5 5.007813 Z M 11 8 C 10.449219 8 10 8.449219 10 9 C 10 9.550781 10.449219 10 11 10 C 11.550781 10 12 9.550781 12 9 C 12 8.449219 11.550781 8 11 8 Z"/></svg>