<svg fill="#000000" xmlns="http://www.w3.org/2000/svg"  viewBox="0 0 16 16" width="16px" height="16px"><path d="M 2.5 2 C 1.675781 2 1 2.675781 1 3.5 L 1 12.5 C 1 13.324219 1.675781 14 2.5 14 L 13.5 14 C 14.324219 14 15 13.324219 15 12.5 L 15 3.5 C 15 2.675781 14.324219 2 13.5 2 Z M 2.5 3 L 13.5 3 C 13.78125 3 14 3.21875 14 3.5 L 14 10.765625 L 10.496094 7.066406 L 8.542969 9.265625 L 5.53125 6.089844 L 2 10.066406 L 2 3.5 C 2 3.21875 2.21875 3 2.5 3 Z M 11 4 C 10.449219 4 10 4.449219 10 5 C 10 5.550781 10.449219 6 11 6 C 11.550781 6 12 5.550781 12 5 C 12 4.449219 11.550781 4 11 4 Z M 5.554688 7.566406 L 10.707031 13 L 2.5 13 C 2.21875 13 2 12.78125 2 12.5 L 2 11.574219 Z M 10.515625 8.546875 L 14 12.21875 L 14 12.5 C 14 12.78125 13.78125 13 13.5 13 L 12.082031 13 L 9.234375 9.992188 Z"/></svg>