<svg fill="#000000" xmlns="http://www.w3.org/2000/svg"  viewBox="0 0 16 16" width="16px" height="16px"><path d="M 2.5 2 C 1.671875 2 1 2.671875 1 3.5 L 1 12.5 C 1 13.328125 1.671875 14 2.5 14 L 7.410156 14 L 7.648438 13 L 2.5 13 C 2.222656 13 2 12.777344 2 12.5 L 2 11.574219 L 5.554688 7.566406 L 9.125 11.332031 L 9.828125 10.621094 L 9.234375 9.992188 L 10.515625 8.546875 L 11.179688 9.242188 L 11.878906 8.53125 L 10.496094 7.066406 L 8.542969 9.265625 L 5.53125 6.089844 L 2 10.066406 L 2 3.5 C 2 3.222656 2.222656 3 2.5 3 L 13.5 3 C 13.777344 3 14 3.222656 14 3.5 L 14 7.023438 C 14.066406 7.015625 14.132813 7 14.199219 7 L 14.25 7 C 14.515625 7.015625 14.765625 7.070313 15 7.15625 L 15 3.5 C 15 2.671875 14.328125 2 13.5 2 Z M 11 4 C 10.449219 4 10 4.449219 10 5 C 10 5.550781 10.449219 6 11 6 C 11.550781 6 12 5.550781 12 5 C 12 4.449219 11.550781 4 11 4 Z M 14.203125 8.003906 C 13.878906 8.007813 13.554688 8.132813 13.3125 8.382813 L 8.648438 13.125 L 7.953125 16.046875 L 10.875 15.355469 L 10.972656 15.253906 L 15.621094 10.6875 C 16.117188 10.203125 16.125 9.386719 15.628906 8.894531 L 15.105469 8.367188 C 14.859375 8.121094 14.53125 8 14.203125 8.003906 Z M 14.210938 8.996094 C 14.277344 8.996094 14.34375 9.023438 14.398438 9.078125 L 14.921875 9.601563 C 15.03125 9.707031 15.03125 9.867188 14.921875 9.976563 L 10.375 14.441406 L 9.296875 14.703125 L 9.554688 13.625 L 14.027344 9.078125 C 14.078125 9.023438 14.144531 8.996094 14.210938 8.996094 Z"/></svg>