<svg fill="#000000" xmlns="http://www.w3.org/2000/svg"  viewBox="0 0 16 16" width="16px" height="16px"><path d="M 2.59375 1 C 1.71875 1 1 1.71875 1 2.59375 L 1 12.40625 C 1 13.28125 1.71875 14 2.59375 14 L 12.40625 14 C 13.28125 14 14 13.28125 14 12.40625 L 14 4.042969 L 10.957031 1 Z M 2.59375 2 L 3 2 L 3 5 C 3 5.546875 3.453125 6 4 6 L 10 6 C 10.546875 6 11 5.546875 11 5 L 11 2.457031 L 13 4.457031 L 13 12.40625 C 13 12.742188 12.738281 13 12.40625 13 L 11 13 L 11 10 C 11 9.453125 10.546875 9 10 9 L 5 9 C 4.453125 9 4 9.453125 4 10 L 4 13 L 2.59375 13 C 2.257813 13 2 12.738281 2 12.40625 L 2 2.59375 C 2 2.257813 2.257813 2 2.59375 2 Z M 4 2 L 7 2 L 7 4 L 9 4 L 9 2 L 10 2 L 10 5 L 4 5 Z M 5 10 L 10 10 L 10 13 L 5 13 Z"/></svg>