<svg fill="#000000" xmlns="http://www.w3.org/2000/svg"  viewBox="0 0 16 16" width="16px" height="16px"><path d="M 5.4921875 2 C 4.6742136 2 3.9981505 2.6698599 3.9921875 3.4882812 L 3.9628906 7.296875 L 3.1386719 8.1542969 A 0.50005 0.50005 0 0 0 3 8.5 L 3 12.5 C 3 13.322531 3.6774686 14 4.5 14 L 11.5 14 C 12.322531 14 13 13.322531 13 12.5 L 13 3.5 C 13 2.6774686 12.322531 2 11.5 2 L 5.4921875 2 z M 5.4921875 3 L 11.5 3 C 11.781469 3 12 3.2185314 12 3.5 L 12 12.5 C 12 12.781469 11.781469 13 11.5 13 L 4.5 13 C 4.2185314 13 4 12.781469 4 12.5 L 4 8.7011719 L 4.8222656 7.8457031 A 0.50005 0.50005 0 0 0 4.9609375 7.5039062 L 4.9921875 3.4960938 C 4.9942245 3.216515 5.2121614 3 5.4921875 3 z M 6 4 L 6 6 L 7 6 L 7 4 L 6 4 z M 8 4 L 8 6 L 9 6 L 9 4 L 8 4 z M 10 4 L 10 6 L 11 6 L 11 4 L 10 4 z"/></svg>